<svg width="40" height="40" viewBox="0 0 40 40" fill="none" xmlns="http://www.w3.org/2000/svg">
<path fill-rule="evenodd" clip-rule="evenodd" d="M39.2 20.4547C39.2 19.0365 39.0727 17.6729 38.8364 16.3638H20V24.1001H30.7636C30.3 26.6001 28.8909 28.7183 26.7727 30.1365V35.1547H33.2364C37.0182 31.6729 39.2 26.5456 39.2 20.4547Z" fill="#4285F4"/>
<path fill-rule="evenodd" clip-rule="evenodd" d="M20.0001 39.9999C25.4001 39.9999 29.9274 38.209 33.2365 35.1545L26.7729 30.1363C24.982 31.3363 22.691 32.0454 20.0001 32.0454C14.791 32.0454 10.3819 28.5272 8.80921 23.7999H2.12738V28.9818C5.41829 35.5181 12.1819 39.9999 20.0001 39.9999Z" fill="#34A853"/>
<path fill-rule="evenodd" clip-rule="evenodd" d="M8.8091 23.8C8.4091 22.6 8.18183 21.3182 8.18183 20C8.18183 18.6818 8.4091 17.4 8.8091 16.2V11.0182H2.12727C0.772728 13.7182 0 16.7727 0 20C0 23.2273 0.772728 26.2818 2.12727 28.9818L8.8091 23.8Z" fill="#FBBC05"/>
<path fill-rule="evenodd" clip-rule="evenodd" d="M20.0001 7.95455C22.9365 7.95455 25.5729 8.96365 27.6456 10.9455L33.382 5.2091C29.9183 1.98182 25.391 0 20.0001 0C12.1819 0 5.41829 4.48182 2.12738 11.0182L8.8092 16.2C10.3819 11.4727 14.791 7.95455 20.0001 7.95455Z" fill="#EA4335"/>
</svg>
